<svg width="140" height="84" viewBox="0 0 140 84" fill="none" xmlns="http://www.w3.org/2000/svg">
<mask id="mask0_1_1206" style="mask-type:luminance" maskUnits="userSpaceOnUse" x="0" y="0" width="140" height="84">
<path d="M140 0H0V84H140V0Z" fill="white"/>
</mask>
<g mask="url(#mask0_1_1206)">
<path d="M130.386 28.1588L111.817 9.65422C111.805 9.64278 111.793 9.63223 111.782 9.6208C111.77 9.60936 111.756 9.59397 111.743 9.58078C106.325 4.18138 99.1807 0.841109 91.5502 0.13873C83.9197 -0.56365 76.2834 1.41613 69.9635 5.73501C63.6437 1.41613 56.0074 -0.56365 48.3769 0.13873C40.7462 0.841109 33.6027 4.18138 28.1838 9.58078L9.61479 28.0849C3.82936 33.8517 0.413859 41.5639 0.0377682 49.7096C-0.338322 57.8554 2.35211 65.8477 7.58172 72.1197C12.8114 78.3912 20.203 82.4907 28.3079 83.6139C36.4128 84.7371 44.6466 82.8034 51.3949 78.1916C56.8591 81.9256 63.329 83.9248 69.9543 83.927C76.58 83.9287 83.0508 81.9331 88.5172 78.2021C95.2576 82.8425 103.496 84.803 111.613 83.6992C119.73 82.5949 127.14 78.5064 132.386 72.2358C137.633 65.9651 140.336 57.9662 139.966 49.8107C139.596 41.6548 136.179 33.9318 130.386 28.1588ZM41.3117 68.9252C37.1197 70.9204 32.355 71.3743 27.8596 70.2071C23.3642 69.0404 19.4275 66.3271 16.7452 62.5473C14.0631 58.7675 12.808 54.1648 13.2019 49.5521C13.5959 44.9394 15.6134 40.6139 18.898 37.3402L37.4666 18.8357C40.3487 15.9673 44.0513 14.0584 48.0658 13.3711C52.0803 12.6838 56.21 13.2517 59.8873 14.997L46.7525 28.0849C41.7154 33.0784 38.4545 39.576 37.4666 46.5877C37.2491 48.1207 37.1394 49.6669 37.1383 51.2153C37.1252 57.3365 38.8477 63.3366 42.1073 68.525C41.8443 68.6649 41.5791 68.7977 41.3117 68.9239V68.9252ZM83.8901 65.0948C80.1925 68.7555 75.1894 70.8057 69.9772 70.7973C64.765 70.7885 59.7691 68.7212 56.0833 65.0487C52.398 61.3757 50.3235 56.3971 50.3146 51.203C50.3062 46.0089 52.3636 41.0234 56.037 37.3385L69.9635 23.4603L83.8901 37.3385C87.5772 41.022 89.6478 46.0124 89.6478 51.2153C89.6478 56.4178 87.5772 61.4083 83.8901 65.0918V65.0948ZM121.101 65.1683C118.206 68.0466 114.484 69.9565 110.451 70.6341C106.418 71.3118 102.273 70.7234 98.5903 68.9503C98.3255 68.8232 98.0634 68.6899 97.8043 68.5505C101.074 63.3564 102.802 57.3466 102.789 51.2153C102.787 49.6669 102.678 48.1207 102.46 46.5877C101.473 39.576 98.2117 33.0784 93.1746 28.0849L80.1201 15.0761L80.0464 15.0027C83.722 13.2582 87.8495 12.6899 91.8622 13.3756C95.875 14.0613 99.5761 15.9675 102.459 18.8326C102.472 18.8458 102.484 18.8599 102.497 18.8731C102.51 18.8863 102.521 18.8951 102.532 18.9065L121.015 37.3244L121.103 37.4123C124.796 41.0932 126.871 46.0854 126.871 51.2905C126.871 56.4956 124.796 61.4879 121.103 65.1687L121.101 65.1683Z" fill="url(#paint0_linear_1_1206)"/>
</g>
<defs>
<linearGradient id="paint0_linear_1_1206" x1="38.3621" y1="83.0756" x2="70.1759" y2="-5.6984" gradientUnits="userSpaceOnUse">
<stop stop-color="#666FCF"/>
<stop offset="1" stop-color="#FF2539"/>
</linearGradient>
</defs>
</svg>
