<svg width="20" height="20" viewBox="0 0 20 20" fill="none" xmlns="http://www.w3.org/2000/svg">
<mask id="mask0_6_1560" style="mask-type:alpha" maskUnits="userSpaceOnUse" x="0" y="0" width="20" height="20">
<rect width="20" height="20" fill="#D9D9D9"/>
</mask>
<g mask="url(#mask0_6_1560)">
<path d="M9.99996 17.5L8.79163 16.4167C7.38885 15.1528 6.22913 14.0625 5.31246 13.1459C4.39579 12.2292 3.66663 11.4063 3.12496 10.6771C2.58329 9.94796 2.20482 9.27782 1.98954 8.66671C1.77426 8.0556 1.66663 7.4306 1.66663 6.79171C1.66663 5.48615 2.10413 4.39587 2.97913 3.52087C3.85413 2.64587 4.9444 2.20837 6.24996 2.20837C6.97218 2.20837 7.65968 2.36115 8.31246 2.66671C8.96524 2.97226 9.52774 3.40282 9.99996 3.95837C10.4722 3.40282 11.0347 2.97226 11.6875 2.66671C12.3402 2.36115 13.0277 2.20837 13.75 2.20837C15.0555 2.20837 16.1458 2.64587 17.0208 3.52087C17.8958 4.39587 18.3333 5.48615 18.3333 6.79171C18.3333 7.4306 18.2257 8.0556 18.0104 8.66671C17.7951 9.27782 17.4166 9.94796 16.875 10.6771C16.3333 11.4063 15.6041 12.2292 14.6875 13.1459C13.7708 14.0625 12.6111 15.1528 11.2083 16.4167L9.99996 17.5Z" fill="#F34040"/>
</g>
</svg>
