<svg width="43" height="26" viewBox="0 0 43 26" fill="none" xmlns="http://www.w3.org/2000/svg">
<mask id="mask0_6_2108" style="mask-type:luminance" maskUnits="userSpaceOnUse" x="0" y="0" width="43" height="26">
<path d="M43 0H0V26H43V0Z" fill="white"/>
</mask>
<g mask="url(#mask0_6_2108)">
<path d="M40.0474 8.71581L34.344 2.98821C34.3405 2.98467 34.3367 2.9814 34.3332 2.97787C34.3296 2.97433 34.3254 2.96956 34.3214 2.96548C32.657 1.29424 30.4629 0.260343 28.1192 0.0429401C25.7756 -0.174463 23.4301 0.438325 21.489 1.77512C19.5479 0.438325 17.2025 -0.174463 14.8588 0.0429401C12.5151 0.260343 10.3211 1.29424 8.65669 2.96548L2.95334 8.69294C1.17638 10.4779 0.127336 12.865 0.0118226 15.3863C-0.103691 17.9076 0.722657 20.3814 2.32889 22.3228C3.93514 24.2639 6.20543 25.5328 8.69479 25.8805C11.1841 26.2281 13.7131 25.6296 15.7858 24.2021C17.4641 25.3579 19.4513 25.9767 21.4862 25.9774C23.5212 25.9779 25.5087 25.3602 27.1876 24.2054C29.2579 25.6417 31.7882 26.2486 34.2814 25.9069C36.7745 25.5651 39.0503 24.2996 40.6618 22.3587C42.2731 20.4178 43.1034 17.9419 42.9898 15.4176C42.8761 12.8932 41.8266 10.5027 40.0474 8.71581ZM12.6888 21.334C11.4013 21.9516 9.93783 22.092 8.55709 21.7308C7.17636 21.3697 5.96723 20.5298 5.1434 19.3599C4.31959 18.1899 3.93411 16.7653 4.05511 15.3376C4.17609 13.9098 4.79576 12.571 5.80461 11.5577L11.5078 5.83009C12.3931 4.94227 13.5302 4.35141 14.7633 4.13867C15.9963 3.92593 17.2647 4.10173 18.3942 4.64191L14.3599 8.69294C12.8128 10.2386 11.8112 12.2497 11.5078 14.42C11.441 14.8945 11.4073 15.3731 11.407 15.8524C11.403 17.747 11.932 19.6042 12.9332 21.2101C12.8524 21.2534 12.7709 21.2945 12.6888 21.3336V21.334ZM25.7665 20.1484C24.6308 21.2815 23.0941 21.916 21.4932 21.9135C19.8923 21.9107 18.3579 21.2708 17.2258 20.1341C16.0939 18.9972 15.4567 17.4562 15.454 15.8486C15.4514 14.2409 16.0833 12.6977 17.2116 11.5571L21.489 7.26152L25.7665 11.5571C26.8989 12.6973 27.5349 14.2419 27.5349 15.8524C27.5349 17.4626 26.8989 19.0073 25.7665 20.1474V20.1484ZM37.1957 20.1711C36.3063 21.062 35.1631 21.6532 33.9244 21.863C32.6856 22.0727 31.4126 21.8906 30.2815 21.3418C30.2002 21.3024 30.1197 21.2612 30.0401 21.218C31.0444 19.6103 31.5751 17.7501 31.5711 15.8524C31.5707 15.3731 31.5371 14.8945 31.4702 14.42C31.1669 12.2497 30.1652 10.2386 28.6182 8.69294L24.6085 4.66642L24.5859 4.64368C25.7148 4.10374 26.9826 3.92782 28.215 4.14006C29.4475 4.35231 30.5843 4.94231 31.4697 5.82914C31.4738 5.83322 31.4776 5.83758 31.4815 5.84166C31.4854 5.84575 31.4888 5.84847 31.4923 5.85201L37.169 11.5528L37.1961 11.58C38.3304 12.7193 38.9678 14.2645 38.9678 15.8756C38.9678 17.4867 38.3304 19.032 37.1961 20.1713L37.1957 20.1711Z" fill="url(#paint0_linear_6_2108)"/>
</g>
<defs>
<linearGradient id="paint0_linear_6_2108" x1="11.7829" y1="25.7139" x2="21.6888" y2="-1.7152" gradientUnits="userSpaceOnUse">
<stop stop-color="#666FCF"/>
<stop offset="1" stop-color="#FF2539"/>
</linearGradient>
</defs>
</svg>
